<svg name="svgM" class="svgMaruca" width="533" height="576">
                    <g transform="translate(8,2)">
                    <title>s1</title>
                    <polygon onclick="location.href = '?c=Mapas&a=ReporteMapa'" id="s1" points="401,0,410,3,424,7,432,15,437,23,442,30,453,36,468,45,475,50,470,58,467,63,463,69,457,74,453,79,444,75,435,70,421,62,405,51,392,43,394,33,392,27,391,18"/>
                    
                    <title>s2</title>
                    <polygon onclick="location.href = '?c=Mapas&a=ReporteMapa'" id="s2" points="441,99,445,90,450,84,419,64,405,56,390,47,380,62,400,74"/>
                    
                    <title>s3</title>
                    <polygon onclick="location.href = '?c=Mapas&a=ReporteMapa'" id="s3" points="363,75,370,70,376,64,439,102,430,115"/>
                    
                    <title>s4</title>
                    <polygon onclick="location.href = '?c=Mapas&a=ReporteMapa'" id="s4" points="393,177,429,118,387,92,381,92,352,138,362,149"/>
                    
                    <title>s5</title>
                    <polygon onclick="location.href = '?c=Mapas&a=ReporteMapa'" id="s5" points="291,92,291,97,298,101,299,107,305,114,309,118,321,124,331,130,350,139,381,89,360,78,344,67,330,65,326,63,309,61,297,62,292,69,285,82,286,91"/>
                    
                    <title>s6</title>
                    <polygon onclick="location.href = '?c=Mapas&a=ReporteMapa'" id="s6" points="279,76,285,65,291,57,281,45,280,40,267,27,259,22,254,18,248,12,243,15,249,27,258,38,262,45,267,47,271,54,273,71"/>
                    
                    <title>s7</title>
                    <polygon onclick="location.href = '?c=Mapas&a=ReporteMapa'" id="s7" points="254,127,275,96,280,95,284,98,288,105,294,112,300,118,305,123,302,129,281,131,273,137,268,137,270,138"/>
                    
                    <title>s8</title>
                    <polygon onclick="location.href = '?c=Mapas&a=ReporteMapa'" id="s8" points="398,176,400,177,408,172,418,169,434,164,440,159,445,161,454,160,466,157,480,154,491,147,500,136,508,126,516,118,518,110,508,100,500,92,496,83,488,76,486,68,485,60,476,51"/>
                    
                    <title>s9</title>
                    <polygon onclick="location.href = '?c=Mapas&a=ReporteMapa'" id="s9" points="296,252,292,238,290,229,290,214,280,191,284,185,292,185,300,183,315,172,333,154,342,145,348,147,358,156,373,173"/>
                    
                    <title>s10</title>
                    <polygon onclick="location.href = '?c=Mapas&a=ReporteMapa'" id="s10" points="336,211,345,213,359,219,364,215,368,211,375,208,379,201,384,191,383,183,374,173"/>
                    
                    <title>s11</title>
                    <polygon onclick="location.href = '?c=Mapas&a=ReporteMapa'" id="s11" points="327,222,326,235,331,246,336,257,339,262,339,268,342,274,348,281,354,287,362,293,368,298,370,303,363,304,352,302,338,298,324,293,316,292,307,288,303,279,299,271,295,253"/>
                    
                    <title>s12</title>
                    <polygon onclick="location.href = '?c=Mapas&a=ReporteMapa'" id="s12" points="241,365,239,353,236,343,231,335,231,325,233,309,236,300,240,294,246,286,253,278,256,278,265,282,273,283,280,280,285,281,288,287,293,301,297,313,301,335,303,347,304,352,292,357,279,361,266,370,252,382"/>
                    
                    <title>s13</title>
                    <polygon onclick="location.href = '?c=Mapas&a=ReporteMapa'" id="s13" points="235,454,235,446,233,439,233,430,233,420,235,408,240,400,243,393,243,388,250,380,247,374,223,397,190,430,192,431,210,438,218,442"/>
                    
                    <title>s14</title>
                    <polygon onclick="location.href = '?c=Mapas&a=ReporteMapa'" id="s14" points="317,365,329,362,334,363,341,366,345,372,346,381,350,392,352,400,355,408,345,408,334,402,326,395,325,384"/>
                    
                    <title>s15</title>
                    <polygon onclick="location.href = '?c=Mapas&a=ReporteMapa'" id="s15" points="327,404,319,392,315,385,314,381,308,372,297,376,287,378,278,382,267,389,256,399,250,414,248,432,250,446,258,465,263,472,268,471,269,464,270,456,275,448,284,442"/>
                    
                    <title>s16</title>
                    <polygon onclick="location.href = '?c=Mapas&a=ReporteMapa'" id="s16" points="329,406,337,415,336,423,335,433,331,443,330,452,326,463,321,469,316,472,312,479,301,482,288,481,278,481,271,475,275,461,280,447"/>

                    <title>s17</title>
                    <polygon onclick="location.href = '?c=Mapas&a=ReporteMapa'" id="s17" points="385,343,388,356,393,364,365,387,358,372,358,363,353,354,362,354,374,352"/>
                    
                    <title>s18</title>
                    <polygon onclick="location.href = '?c=Mapas&a=ReporteMapa'" id="s18" points="368,387,394,364,400,367,405,371,414,374,422,377,431,381,441,389,447,394,452,404,470,436,467,444,459,453,459,460,451,469,443,471,439,464,444,454,452,449,446,446,446,435,443,425,434,414,427,407,420,401,405,412,395,418,384,404,380,399"/>
                    
                    <title>s19</title>
                    <polygon onclick="location.href = '?c=Mapas&a=ReporteMapa'" id="s19" points="484,546,501,520,496,513,503,502,531,492,529,485,509,493,495,489,484,482,475,470,467,471,460,479,452,483,441,483,431,477,429,469,431,454,429,442,422,436,419,426,411,427,405,435,398,441,397,447,396,453,394,462,393,475,404,489,411,500,420,507,450,526"/>
                    
                    <title>s20</title>
                    <polygon onclick="location.href = '?c=Mapas&a=ReporteMapa'" id="s20" points="235,483,224,469,212,457,201,451,182,450,174,454,166,458,155,464,140,466,132,471,158,518,165,515,169,519,178,516,188,511,198,507,208,501,218,490,234,484"/>
                    
                    <title>s21</title>
                    <polygon onclick="location.href = '?c=Mapas&a=ReporteMapa'" id="s21" points="131,473,123,479,120,490,108,495,97,495,104,513,114,541,126,534,137,528,146,521,155,516"/>
                    
                    <title>s22</title>
                    <polygon onclick="location.href = '?c=Mapas&a=ReporteMapa'" id="s22" points="77,576,70,567,64,558,56,558,44,554,37,552,27,555,20,557,10,552,0,549,-1,529,5,527,18,523,26,520,49,511,66,504,77,504,85,503,97,500,111,540,104,545,96,551,93,556,87,562,84,569"/>
                    
                    <title>s23</title>
                    <polygon onclick="location.href = '?c=Mapas&a=ReporteMapa'" id="s23" points="113,470,115,475,123,474,126,466,116,450,106,450,101,454,98,462,96,468,89,473,90,480,94,485,102,489,110,488,117,485"/>
                    
                    <title>s24</title>
                    <polygon onclick="location.href = '?c=Mapas&a=ReporteMapa'" id="s24" points="99,556,145,525,144,530,144,539,141,545,131,551,116,557,103,558,99,556"/>
                    </g>
</svg>